<svg width="204" height="69" viewBox="0 0 204 69" fill="none" xmlns="http://www.w3.org/2000/svg">
<path d="M13.2944 66.2238C14.9222 65.8625 16.4709 65.2531 17.9405 64.3955C19.41 63.5378 20.7553 62.4994 21.9762 61.2807C23.1971 60.0619 24.237 58.7077 25.0962 57.218C25.9554 55.7283 26.5657 54.1934 26.9276 52.6133C26.5206 52.8392 25.9102 53.268 25.0962 53.8999C24.2823 54.5318 23.3892 55.288 22.4171 56.1683C21.4449 57.0485 20.4389 57.9965 19.3988 59.0122C18.3587 60.0281 17.3979 60.9986 16.5161 61.924C15.6344 62.8495 14.8995 63.6959 14.3118 64.4632C13.7239 65.2306 13.3848 65.8175 13.2944 66.2238ZM0.000159969 37.2424C0.000159969 36.5202 0.0907023 35.7076 0.271627 34.8047C0.452552 33.9019 0.689786 32.9878 0.983808 32.0623C1.27783 31.137 1.58305 30.2454 1.89947 29.3877C2.21605 28.5299 2.50975 27.7626 2.78122 27.0854L4.06993 24.3091C5.60739 21.5554 7.13349 18.892 8.64824 16.3189C10.1631 13.7457 12.0962 11.308 14.4476 9.00596C15.5328 7.9224 16.6859 6.85033 17.9068 5.78945C19.1276 4.72856 20.4163 3.7694 21.7729 2.91165C23.1294 2.0539 24.5538 1.35426 26.046 0.812554C27.5382 0.270851 29.0982 0 30.7262 0C31.9471 0 33.0548 0.259513 34.0497 0.778697C35.0445 1.29772 35.881 1.98619 36.5593 2.84394C37.2375 3.70169 37.7688 4.68352 38.1534 5.78945C38.5378 6.89553 38.7299 8.05799 38.7299 9.27666C38.7299 10.3601 38.7185 11.3532 38.696 12.256C38.6734 13.1588 38.617 14.0391 38.5264 14.8968C38.436 15.7546 38.3117 16.6348 38.1535 17.5376C37.9952 18.4406 37.7805 19.4111 37.509 20.4494C36.9666 22.7967 36.3107 25.2796 35.542 27.8978C34.7734 30.5161 33.9367 32.9763 33.0324 35.2785C32.8063 35.8653 32.5916 36.4408 32.3879 37.0052C32.1845 37.5694 31.9471 38.145 31.6758 38.7319C31.4496 39.2284 31.1559 39.7589 30.794 40.3233C30.4322 40.8875 29.9123 41.1697 29.234 41.1697C28.3748 41.1697 27.821 40.7634 27.5722 39.9509C27.3235 39.1383 27.2331 38.1902 27.3008 37.1068C27.3686 36.0234 27.527 34.94 27.7756 33.8566C28.0243 32.7732 28.1937 31.9606 28.2843 31.4189C28.5556 30.0647 28.8494 28.5863 29.166 26.9837C29.4826 25.3813 29.7878 23.7562 30.0817 22.1084C30.3755 20.4608 30.6129 18.8357 30.7938 17.2331C30.9748 15.6306 31.0651 14.1296 31.0651 12.7302C31.0651 11.3309 30.9861 10.2587 30.8279 9.51381C30.6695 8.76897 30.2287 8.39655 29.5051 8.39655C28.7365 8.39655 27.2443 9.0962 25.0286 10.4956L22.1119 12.7302C21.9309 12.9108 21.7953 13.0349 21.7049 13.1026C21.6144 13.1703 21.4561 13.2944 21.2301 13.475C20.9135 13.7459 20.631 14.0167 20.3823 14.2876C20.1335 14.5584 19.8509 14.8518 19.5344 15.1678L16.3466 18.8245C16.1205 19.1856 15.8831 19.5129 15.6344 19.8062C15.3856 20.0997 15.1482 20.4269 14.9222 20.788C14.1083 21.8264 13.1926 23.1468 12.1752 24.7492C11.1577 26.3518 10.1855 28.0334 9.25852 29.794C8.3315 31.5545 7.55149 33.2925 6.91849 35.008C6.2855 36.7233 5.96892 38.2355 5.96892 39.5448C5.96892 39.951 6.21767 40.2219 6.71501 40.3573C7.21236 40.4927 7.84551 40.5605 8.61416 40.5605C9.29243 40.5605 10.0611 40.5154 10.9203 40.425C11.7793 40.3348 12.6385 40.2444 13.4977 40.1542C14.3569 40.0638 15.1822 39.9736 15.9734 39.8833C16.7647 39.7929 17.4318 39.7477 17.9743 39.7477H20.4839C21.5692 39.7477 22.6657 39.951 23.7736 40.3572C24.8816 40.7634 25.8876 41.3051 26.7919 41.9823C27.6964 42.6594 28.4423 43.4268 29.0302 44.2845C29.6179 45.1423 29.9345 46.0225 29.9798 46.9253C30.3416 46.8351 30.8276 46.5304 31.438 46.0112C32.0485 45.492 32.5119 45.1196 32.8285 44.8939L35.5417 42.7948C36.0391 42.4336 36.5025 42.0952 36.9322 41.7791C37.3617 41.4631 37.8253 41.1245 38.3226 40.7634C39.0009 40.2669 40.0522 39.4881 41.4767 38.4272C42.9009 37.3663 44.3933 36.3167 45.9533 35.2785C47.5133 34.2402 48.9604 33.3262 50.2942 32.5362C51.6282 31.7461 52.5666 31.3512 53.109 31.3512C53.1996 31.3512 53.3464 31.4416 53.5499 31.622C53.7535 31.8027 53.8551 32.0058 53.8551 32.2315C53.8551 32.8184 53.6404 33.1906 53.2108 33.3487C52.7812 33.5068 52.1142 33.8792 51.2099 34.466C47.7733 36.7682 44.4609 39.0706 41.2731 41.3727C38.0852 43.6749 34.8634 46.1353 31.6078 48.7534C31.1555 49.1597 30.8391 49.4305 30.6582 49.5659C30.4773 49.7015 30.3755 49.8481 30.353 50.0061C30.3304 50.1642 30.3191 50.3785 30.3191 50.6495C30.3191 50.9204 30.2739 51.3944 30.1834 52.0713C29.8216 54.0577 29.2452 55.7843 28.4538 57.2513C27.6625 58.7185 26.6339 60.2421 25.3675 61.822C24.6442 62.7701 23.7397 63.6729 22.6545 64.5306C21.5692 65.3882 20.4501 66.1557 19.2969 66.8329C18.1438 67.5098 16.9909 68.0404 15.8377 68.4241C14.6847 68.8079 13.6786 68.9997 12.8194 68.9997C12.0508 68.9997 11.429 68.8191 10.9542 68.4581C10.4794 68.0969 10.242 67.5327 10.242 66.7652C10.242 66.043 10.7168 65.0498 11.6664 63.7858C12.6159 62.5218 13.7464 61.2127 15.0577 59.8585C16.369 58.5042 17.7142 57.2065 19.0934 55.965C20.4725 54.7235 21.6144 53.7643 22.5187 53.0872C22.6543 52.9968 22.9709 52.7598 23.4682 52.376C23.9656 51.9923 24.4856 51.5862 25.0282 51.1572C25.5709 50.7284 26.0568 50.3108 26.4865 49.9045C26.916 49.4982 27.131 49.2049 27.131 49.0242C27.131 48.2117 26.9501 47.478 26.5884 46.8236C26.2266 46.169 25.7631 45.6047 25.198 45.1306C24.6328 44.6566 23.9996 44.2955 23.2987 44.0472C22.5978 43.7989 21.8857 43.6748 21.1621 43.6748C19.4439 43.6748 18.0082 43.7652 16.8551 43.9458C15.7021 44.1262 14.6168 44.3295 13.5994 44.555C12.582 44.7808 11.5082 44.9838 10.3777 45.1645C9.24716 45.3451 7.8228 45.4353 6.10457 45.4353C4.9288 45.4353 3.95667 45.1985 3.18786 44.7243C2.41921 44.2503 1.79741 43.6296 1.32262 42.8622C0.847835 42.0949 0.508701 41.2258 0.305221 40.2553C0.10174 39.2848 0 38.2804 0 37.2421L0.000159969 37.2424ZM36.3158 18.4858C36.3158 18.2149 36.4515 17.9779 36.7228 17.7748C36.9941 17.5716 37.322 17.4135 37.7063 17.3008C38.0907 17.188 38.4863 17.0976 38.8932 17.0299C39.3002 16.9622 39.6393 16.9058 39.9106 16.8607L48.5246 15.4388C49.2934 15.3033 50.0168 15.1905 50.6951 15.1003C51.3734 15.01 52.1194 14.8971 52.9334 14.7617C53.5664 14.6713 53.9055 14.5699 53.9508 14.457C53.996 14.3441 54.1543 14.0621 54.4256 13.6106C54.8325 12.8884 55.3073 12.0984 55.8498 11.2406C56.3924 10.3831 56.9804 9.72845 57.6134 9.27698C58.0204 9.00612 58.4725 8.8707 58.97 8.8707C59.3769 8.8707 59.7727 8.97227 60.1569 9.17525C60.5413 9.37855 60.824 9.68325 61.0048 10.0894C61.1857 10.4956 61.2422 11.0148 61.1742 11.6468C61.1063 12.2787 60.8464 13.001 60.3942 13.8136C60.8464 13.8136 61.4455 13.7797 62.1916 13.712C62.9377 13.6443 63.7177 13.5654 64.5316 13.475C65.3455 13.3848 66.1482 13.3057 66.9396 13.238C67.7308 13.1703 68.3979 13.1139 68.9403 13.0689L78.0971 12.9333C79.3633 12.9333 80.2109 13.1253 80.6406 13.509C81.0701 13.8928 81.2399 14.3216 81.1493 14.7956C81.0589 15.2696 80.7537 15.6985 80.2337 16.0821C79.7136 16.4659 79.1371 16.6577 78.5041 16.6577C77.9616 16.6577 77.6676 16.4997 77.6223 16.1837C77.577 15.8676 77.5545 15.5518 77.5545 15.2357C77.2379 15.2357 76.5937 15.247 75.6214 15.2696C74.6493 15.2921 73.5074 15.3373 72.1962 15.405C70.8849 15.4727 69.4945 15.5516 68.0248 15.642C66.5552 15.7322 65.1987 15.8338 63.9552 15.9467C62.7116 16.0594 61.6378 16.1835 60.7333 16.3191C59.829 16.4545 59.3091 16.59 59.1734 16.7254C58.9925 16.906 58.6534 17.617 58.1559 18.8583C57.6585 20.0998 57.1273 21.4878 56.5619 23.0228C55.9968 24.5576 55.4766 26.0022 55.0019 27.3565C54.5271 28.7107 54.2219 29.5685 54.0863 29.9295C53.6793 31.1936 53.2384 32.5817 52.7636 34.094C52.2889 35.6062 51.8366 37.1411 51.4071 38.6987C50.9776 40.2559 50.6271 41.8135 50.3558 43.3709C50.0843 44.9283 49.9488 46.3616 49.9488 47.6706C50.4462 47.3998 51.0568 46.8693 51.7802 46.0794C52.5037 45.2893 53.2611 44.4091 54.0525 43.4384C54.8437 42.4679 55.5786 41.5313 56.2569 40.6283C56.9352 39.7255 57.4327 39.0484 57.7491 38.5969L60.6656 34.8726C61.3439 33.9698 61.9092 33.5183 62.3613 33.5183C62.6779 33.5183 62.9039 33.6424 63.0396 33.8907C63.1752 34.1391 63.2432 34.3082 63.2432 34.3986C63.2432 34.7146 63.0284 35.1548 62.5987 35.719C62.1692 36.2832 61.8412 36.6782 61.6154 36.904C60.8918 37.9422 60.1118 39.2175 59.2752 40.7297C58.4387 42.2419 57.6585 43.5398 56.9352 44.6232C56.5282 45.2101 56.0195 45.9663 55.4089 46.8918C54.7986 47.8171 54.1202 48.7087 53.3741 49.5664C52.628 50.4242 51.848 51.1578 51.0341 51.7673C50.2201 52.3765 49.4288 52.6814 48.6601 52.6814C47.7557 52.6814 46.9417 52.2526 46.2184 51.3948C45.5401 50.5823 45.0879 49.5552 44.8618 48.3137C44.6356 47.0724 44.5452 45.7745 44.5905 44.4202C44.6356 43.066 44.7714 41.7456 44.9975 40.459C45.2237 39.1725 45.427 38.0778 45.6079 37.1748C45.7888 36.0914 45.9923 35.1208 46.2184 34.2632C46.4444 33.4054 46.6706 32.5929 46.8965 31.8255C47.1227 31.058 47.3713 30.2793 47.6426 29.4893C47.914 28.6994 48.2077 27.8076 48.5243 26.8146L51.0341 20.4494C51.2148 20.0432 51.4522 19.5465 51.7462 18.9597C52.0403 18.3729 52.2324 17.8537 52.3228 17.4024L40.9955 19.1629C40.4078 19.2533 39.8313 19.366 39.266 19.5015C38.7008 19.6369 38.1921 19.7046 37.7397 19.7046C37.152 19.7046 36.7676 19.5692 36.5866 19.2983C36.4057 19.0727 36.3153 18.8018 36.3153 18.4858H36.3158ZM71.4106 33.3829C71.6819 33.0217 71.9757 32.6718 72.2923 32.3334C72.6089 31.9948 72.88 31.6674 73.1062 31.3515C72.8348 30.9903 72.6314 30.8211 72.4958 30.8437C72.3601 30.8662 72.2245 30.6744 72.0888 30.2681C71.5915 30.3131 71.015 30.7082 70.3593 31.4531C69.7035 32.1979 69.0705 33.0782 68.4601 34.0939C67.8497 35.1096 67.3182 36.1253 66.866 37.141C66.4138 38.1567 66.1199 38.9804 65.9843 39.6125L71.4106 33.3829ZM58.9303 41.7116C58.9303 38.7322 59.5974 35.8656 60.9312 33.1119C62.2652 30.3582 63.9947 27.9657 66.1199 25.9342C66.8886 25.1668 67.7703 24.5574 68.7652 24.1059C69.76 23.6545 70.7549 23.4288 71.7495 23.4288C73.2417 23.4288 74.3722 23.9705 75.1409 25.0539C75.6835 25.8214 75.9323 26.5099 75.887 27.1191C75.8417 27.7286 75.8191 28.3041 75.8191 28.8458C76.814 28.8458 77.3566 29.173 77.447 29.8277C77.5374 30.4821 77.4695 31.3287 77.2435 32.3669C77.0173 33.4053 76.7687 34.5677 76.4974 35.8541C76.2261 37.1406 76.2487 38.4385 76.5652 39.7476C76.9271 39.838 77.2208 39.8832 77.447 39.8832C78.4871 39.8832 79.4931 39.5558 80.4653 38.9013C81.4376 38.2467 82.3531 37.6712 83.2123 37.1747C83.9809 36.7232 84.5914 36.2719 85.0436 35.8204C85.4958 35.3689 85.8802 34.974 86.1968 34.6354C86.5134 34.2969 86.8071 34.026 87.0786 33.8229C87.3499 33.6196 87.689 33.5182 88.096 33.5182C88.2316 33.5182 88.3559 33.5295 88.469 33.552C88.5821 33.5747 88.729 33.6084 88.9099 33.6536C89.2265 34.2855 89.2377 34.8159 88.9438 35.2448C88.6498 35.6736 88.1638 36.2267 87.4854 36.9038C87.0784 37.3101 86.5923 37.7052 86.0271 38.0888C85.4619 38.4725 84.9305 38.845 84.4332 39.206C84.0713 39.4769 83.6079 39.8153 83.0425 40.2217C82.4774 40.628 81.8556 41.0118 81.1775 41.3729C80.4992 41.7341 79.8096 42.05 79.1087 42.321C78.4078 42.5918 77.7181 42.7273 77.04 42.7273C75.8192 42.7273 74.8921 42.2082 74.259 41.1699C73.7616 40.2671 73.5129 39.4432 73.5129 38.6984C73.5129 37.9535 73.5582 37.1069 73.6485 36.1591C73.4225 36.3397 73.2304 36.5767 73.072 36.8701C72.9138 37.1636 72.7217 37.4458 72.4955 37.7165L68.0867 44.014C67.5441 44.6459 67.1485 45.1426 66.8998 45.5035C66.651 45.8647 66.1649 46.2935 65.4413 46.79C64.944 47.1513 64.5257 47.3543 64.1865 47.3995C63.8474 47.4445 63.3613 47.4672 62.7283 47.4672C62.1405 47.4672 61.6091 47.2865 61.1343 46.9255C60.6595 46.5642 60.2524 46.1016 59.9135 45.5373C59.5743 44.9731 59.3257 44.3524 59.1674 43.6753C59.0091 42.9981 58.93 42.3435 58.93 41.7116H58.9303ZM79.103 58.9108C79.103 56.789 79.2386 54.8255 79.51 53.0198C79.7813 51.214 80.0977 49.3406 80.4595 47.3996C80.5499 46.9933 80.5726 46.6434 80.5274 46.3501C80.4821 46.0565 80.4821 45.7293 80.5274 45.3682C80.6177 44.962 80.7308 44.7024 80.8665 44.5895C81.0023 44.4766 81.1152 44.2396 81.2056 43.8784C81.3866 43.3368 81.5448 42.7725 81.6804 42.1856C81.8162 41.5988 81.9519 41.0119 82.0874 40.425C82.63 38.3485 83.2857 36.193 84.0544 33.9585C84.8232 31.7239 85.6822 29.5119 86.6318 27.3226C87.5815 25.1333 88.6101 23.0115 89.718 20.9574C90.8258 18.9034 91.9677 16.9961 93.1433 15.2355C93.4148 14.8293 93.7763 14.3553 94.2287 13.8137C94.6809 13.272 95.1783 12.7415 95.7209 12.2223C96.2633 11.7033 96.8061 11.2743 97.3487 10.9358C97.8912 10.5972 98.3887 10.4278 98.8408 10.4278C99.6999 10.4278 100.333 10.5859 100.74 10.9018C101.147 11.2178 101.35 11.8949 101.35 12.9331C101.35 13.7007 101.136 14.8745 100.706 16.4544C100.276 18.0343 99.7564 19.6257 99.146 21.2281C98.5355 22.8307 97.9251 24.2302 97.3146 25.4263C96.7042 26.6226 96.1955 27.2207 95.7885 27.2207C95.2912 27.2207 95.0197 27.0741 94.9746 26.7806C94.9294 26.4871 94.9972 26.0809 95.1781 25.5617C95.359 25.0427 95.619 24.422 95.9581 23.6998C96.2972 22.9775 96.6026 22.1876 96.8738 21.3299C97.1 20.6979 97.3711 19.795 97.6877 18.6212C98.0043 17.4475 98.2076 16.4996 98.2981 15.7772C97.9816 16.0031 97.5746 16.5786 97.0772 17.5039C96.5799 18.4292 96.0486 19.5465 95.4833 20.8557C94.9182 22.1648 94.3416 23.5869 93.7537 25.1216C93.166 26.6565 92.6232 28.135 92.1259 29.5568C91.6285 30.9788 91.1877 32.2767 90.8033 33.4505C90.4189 34.6241 90.1362 35.5044 89.9554 36.0913C89.8198 36.5878 89.6616 37.1181 89.4807 37.6825C89.2997 38.2467 89.1866 38.7546 89.1415 39.2062C90.0007 38.7547 90.8146 38.2582 91.5833 37.7165C91.8548 37.5359 92.3294 37.1975 93.0076 36.7008C93.6859 36.2043 94.4094 35.6965 95.1781 35.1771C95.9467 34.6581 96.6703 34.1955 97.3486 33.789C98.0267 33.3827 98.4563 33.1796 98.6373 33.1796C98.9086 33.1796 99.146 33.3489 99.3494 33.6874C99.5531 34.026 99.3155 34.4436 98.6373 34.9401C97.5068 35.7979 96.546 36.5315 95.7546 37.141C94.9633 37.7502 93.9121 38.5066 92.6007 39.4093C92.2388 39.6352 91.9336 39.8495 91.685 40.0526C91.4363 40.2557 91.1311 40.4702 90.7694 40.696C90.046 41.1926 89.5146 41.5311 89.1754 41.7117C88.8363 41.8924 88.5989 42.0615 88.4632 42.2196C88.3274 42.3775 88.237 42.5693 88.1918 42.7951C88.1467 43.021 88.0561 43.4046 87.9205 43.9464C87.6492 45.075 87.3327 46.3502 86.9709 47.7722C86.609 49.194 86.4283 50.4694 86.4283 51.598C86.4736 52.7718 86.4736 53.7761 86.4283 54.6112C86.383 55.4463 86.2701 56.3379 86.0891 57.2858C85.9986 57.9178 85.8855 58.7078 85.75 59.6558C85.6144 60.6038 85.4334 61.5292 85.2076 62.432C84.9814 63.335 84.6536 64.1137 84.2241 64.7683C83.7946 65.4227 83.218 65.7499 82.4945 65.7499C81.6355 65.7499 80.9797 65.5356 80.5275 65.1067C80.0753 64.6779 79.7475 64.136 79.544 63.4816C79.3405 62.827 79.2162 62.0935 79.171 61.2809C79.1259 60.4683 79.1031 59.6783 79.1031 58.911L79.103 58.9108ZM96.6981 58.9108C96.6981 56.789 96.8338 54.8255 97.1051 53.0198C97.3764 51.214 97.6928 49.3406 98.0547 47.3996C98.145 46.9933 98.1678 46.6434 98.1225 46.3501C98.0772 46.0565 98.0772 45.7293 98.1225 45.3682C98.2129 44.962 98.326 44.7024 98.4616 44.5895C98.5974 44.4766 98.7104 44.2396 98.8008 43.8784C98.9817 43.3368 99.1399 42.7725 99.2755 42.1856C99.4114 41.5988 99.547 41.0119 99.6825 40.425C100.225 38.3485 100.881 36.193 101.649 33.9585C102.418 31.7239 103.277 29.5119 104.227 27.3226C105.177 25.1333 106.205 23.0115 107.313 20.9574C108.421 18.9034 109.563 16.9961 110.738 15.2355C111.01 14.8293 111.371 14.3553 111.824 13.8137C112.276 13.272 112.773 12.7415 113.316 12.2223C113.858 11.7033 114.401 11.2743 114.944 10.9358C115.486 10.5972 115.984 10.4278 116.436 10.4278C117.295 10.4278 117.928 10.5859 118.335 10.9018C118.742 11.2178 118.945 11.8949 118.945 12.9331C118.945 13.7007 118.731 14.8745 118.301 16.4544C117.872 18.0343 117.352 19.6257 116.741 21.2281C116.131 22.8307 115.52 24.2302 114.91 25.4263C114.299 26.6226 113.791 27.2207 113.384 27.2207C112.886 27.2207 112.615 27.0741 112.57 26.7806C112.524 26.4871 112.592 26.0809 112.773 25.5617C112.954 25.0427 113.214 24.422 113.553 23.6998C113.892 22.9775 114.198 22.1876 114.469 21.3299C114.695 20.6979 114.966 19.795 115.283 18.6212C115.599 17.4475 115.803 16.4996 115.893 15.7772C115.577 16.0031 115.17 16.5786 114.672 17.5039C114.175 18.4292 113.644 19.5465 113.078 20.8557C112.513 22.1648 111.937 23.5869 111.349 25.1216C110.761 26.6565 110.218 28.135 109.721 29.5568C109.224 30.9788 108.783 32.2767 108.398 33.4505C108.014 34.6241 107.731 35.5044 107.551 36.0913C107.415 36.5878 107.257 37.1181 107.076 37.6825C106.895 38.2467 106.782 38.7546 106.737 39.2062C107.596 38.7547 108.41 38.2582 109.178 37.7165C109.45 37.5359 109.925 37.1975 110.603 36.7008C111.281 36.2043 112.005 35.6965 112.773 35.1771C113.542 34.6581 114.265 34.1955 114.944 33.789C115.622 33.3827 116.051 33.1796 116.232 33.1796C116.504 33.1796 116.741 33.3489 116.945 33.6874C117.148 34.026 116.911 34.4436 116.232 34.9401C115.102 35.7979 114.141 36.5315 113.35 37.141C112.558 37.7502 111.507 38.5066 110.196 39.4093C109.834 39.6352 109.529 39.8495 109.28 40.0526C109.031 40.2557 108.726 40.4702 108.364 40.696C107.641 41.1926 107.11 41.5311 106.771 41.7117C106.431 41.8924 106.194 42.0615 106.058 42.2196C105.923 42.3775 105.832 42.5693 105.787 42.7951C105.742 43.021 105.651 43.4046 105.516 43.9464C105.244 45.075 104.928 46.3502 104.566 47.7722C104.204 49.194 104.023 50.4694 104.023 51.598C104.069 52.7718 104.069 53.7761 104.023 54.6112C103.978 55.4463 103.865 56.3379 103.684 57.2858C103.594 57.9178 103.481 58.7078 103.345 59.6558C103.209 60.6038 103.029 61.5292 102.803 62.432C102.576 63.335 102.249 64.1137 101.819 64.7683C101.39 65.4227 100.813 65.7499 100.09 65.7499C99.2306 65.7499 98.5749 65.5356 98.1227 65.1067C97.6704 64.6779 97.3426 64.136 97.1392 63.4816C96.9357 62.827 96.8114 62.0935 96.7661 61.2809C96.721 60.4683 96.6983 59.6783 96.6983 58.911L96.6981 58.9108ZM130.165 33.3829C130.436 33.0217 130.73 32.6718 131.047 32.3334C131.363 31.9948 131.634 31.6674 131.861 31.3515C131.589 30.9903 131.386 30.8211 131.25 30.8437C131.114 30.8662 130.979 30.6744 130.843 30.2681C130.346 30.3131 129.769 30.7082 129.114 31.4531C128.458 32.1979 127.825 33.0782 127.214 34.0939C126.604 35.1096 126.073 36.1253 125.62 37.141C125.168 38.1567 124.874 38.9804 124.739 39.6125L130.165 33.3829ZM117.685 41.7116C117.685 38.7322 118.352 35.8656 119.685 33.1119C121.019 30.3582 122.749 27.9657 124.874 25.9342C125.643 25.1668 126.525 24.5574 127.519 24.1059C128.514 23.6545 129.509 23.4288 130.504 23.4288C131.996 23.4288 133.127 23.9705 133.895 25.0539C134.438 25.8214 134.687 26.5099 134.641 27.1191C134.596 27.7286 134.573 28.3041 134.573 28.8458C135.568 28.8458 136.111 29.173 136.201 29.8277C136.292 30.4821 136.224 31.3287 135.998 32.3669C135.772 33.4053 135.523 34.5677 135.252 35.8541C134.98 37.1406 135.003 38.4385 135.32 39.7476C135.681 39.838 135.975 39.8832 136.201 39.8832C137.241 39.8832 138.247 39.5558 139.22 38.9013C140.192 38.2467 141.107 37.6712 141.967 37.1747C142.735 36.7232 143.346 36.2719 143.798 35.8204C144.25 35.3689 144.635 34.974 144.951 34.6354C145.268 34.2969 145.561 34.026 145.833 33.8229C146.104 33.6196 146.443 33.5182 146.85 33.5182C146.986 33.5182 147.11 33.5295 147.223 33.552C147.336 33.5747 147.483 33.6084 147.664 33.6536C147.981 34.2855 147.992 34.8159 147.698 35.2448C147.404 35.6736 146.918 36.2267 146.24 36.9038C145.833 37.3101 145.347 37.7052 144.781 38.0888C144.216 38.4725 143.685 38.845 143.187 39.206C142.826 39.4769 142.362 39.8153 141.797 40.2217C141.232 40.628 140.61 41.0118 139.932 41.3729C139.254 41.7341 138.564 42.05 137.863 42.321C137.162 42.5918 136.472 42.7273 135.794 42.7273C134.573 42.7273 133.646 42.2082 133.013 41.1699C132.516 40.2671 132.267 39.4432 132.267 38.6984C132.267 37.9535 132.312 37.1069 132.403 36.1591C132.177 36.3397 131.985 36.5767 131.826 36.8701C131.668 37.1636 131.476 37.4458 131.25 37.7165L126.841 44.014C126.298 44.6459 125.903 45.1426 125.654 45.5035C125.405 45.8647 124.919 46.2935 124.196 46.79C123.698 47.1513 123.28 47.3543 122.941 47.3995C122.602 47.4445 122.116 47.4672 121.483 47.4672C120.895 47.4672 120.363 47.2865 119.889 46.9255C119.414 46.5642 119.007 46.1016 118.668 45.5373C118.329 44.9731 118.08 44.3524 117.922 43.6753C117.763 42.9981 117.684 42.3435 117.684 41.7116H117.685ZM142.673 43.8784C142.673 43.2014 142.809 42.1742 143.08 40.7975C143.351 39.4207 143.736 37.8858 144.233 36.193C144.73 34.5 145.307 32.7735 145.963 31.0129C146.618 29.2523 147.353 27.6385 148.167 26.1713C148.981 24.7043 149.829 23.508 150.71 22.5825C151.592 21.6571 152.508 21.1944 153.457 21.1944C153.955 21.1944 154.362 21.3524 154.678 21.6684L154.882 21.8716C155.017 22.0071 155.198 22.2553 155.424 22.6164C155.65 22.9776 155.764 23.271 155.764 23.4967C155.764 23.9481 155.537 24.7382 155.085 25.8666C154.633 26.9952 154.136 28.214 153.593 29.5233C153.051 30.8323 152.553 32.1077 152.101 33.349C151.649 34.5905 151.423 35.5949 151.423 36.3623L158.477 29.4556C158.974 29.0041 159.506 28.643 160.071 28.372C160.636 28.1011 161.167 27.9657 161.665 27.9657C162.795 27.9657 163.451 28.6879 163.632 30.1325C163.677 30.6741 163.677 31.4643 163.632 32.5023C163.587 33.5407 163.598 34.5789 163.666 35.6171C163.734 36.6555 163.915 37.5696 164.208 38.3595C164.503 39.1495 165.011 39.5444 165.735 39.5444C166.142 39.5444 166.718 39.3301 167.464 38.9012C168.21 38.4724 168.968 37.9645 169.736 37.3775C170.505 36.7907 171.229 36.2038 171.907 35.6169C172.585 35.0302 173.083 34.5787 173.399 34.2627C173.67 33.9917 173.987 33.6533 174.349 33.2468C174.71 32.8406 175.14 32.6376 175.637 32.6376C176.044 32.6376 176.304 32.8182 176.417 33.1791C176.53 33.5404 176.474 33.9014 176.248 34.2627C176.067 34.5335 175.683 34.9623 175.095 35.5492C174.507 36.1361 173.851 36.7455 173.128 37.3775C172.404 38.0096 171.692 38.6302 170.991 39.2396C170.29 39.849 169.691 40.3116 169.194 40.6277C168.606 40.9889 167.973 41.3275 167.294 41.6435C166.616 41.9596 165.938 42.1175 165.259 42.1175C164.265 42.1175 163.383 41.7338 162.614 40.9664C162.162 40.5601 161.8 40.0073 161.529 39.3075C161.258 38.6078 161.054 37.863 160.918 37.0729C160.783 36.2829 160.692 35.504 160.647 34.7367C160.602 33.9693 160.579 33.3147 160.579 32.773C160.127 33.0891 159.788 33.4163 159.562 33.7548C159.336 34.0934 159.042 34.4433 158.68 34.8042C157.007 36.5648 155.571 38.4157 154.373 40.3568C153.175 42.298 151.965 44.194 150.744 46.0447C150.292 46.6767 149.897 47.2522 149.557 47.7714C149.218 48.2904 148.71 48.7306 148.031 49.0918C147.624 49.3626 147.082 49.4981 146.403 49.4981C145.544 49.4981 144.866 49.3289 144.369 48.9902C143.871 48.6517 143.498 48.2229 143.249 47.7037C143.001 47.1845 142.842 46.5864 142.775 45.9093C142.707 45.2322 142.673 44.555 142.673 43.8777L142.673 43.8784ZM176.683 52.3427C175.326 52.3427 174.229 51.7332 173.393 50.5144C172.556 49.2956 172.002 48.0767 171.731 46.8578C171.098 44.0588 171.064 41.136 171.629 38.0889C172.194 35.0419 173.02 32.2316 174.105 29.6585C174.964 27.6271 175.857 26.2277 176.784 25.4603C177.711 24.693 178.559 24.3091 179.328 24.3091C180.096 24.3091 180.752 24.5913 181.295 25.1555C181.837 25.7197 182.109 26.2953 182.109 26.8822C182.109 27.9656 181.939 28.7668 181.6 29.286C181.261 29.805 180.91 30.5161 180.549 31.4189C180.187 32.2767 179.735 33.4505 179.192 34.94C178.65 36.4297 178.175 37.987 177.768 39.6123C177.361 41.2374 177.112 42.8062 177.022 44.3184C176.931 45.8307 177.135 47.0607 177.632 48.0087C178.13 47.9637 178.491 47.8056 178.718 47.5347C178.944 47.2639 179.215 46.993 179.531 46.7222C180.074 46.1805 180.662 45.492 181.295 44.6569C181.928 43.8219 182.539 42.9414 183.126 42.0161C183.714 41.0907 184.279 40.1992 184.822 39.3415C185.365 38.4837 185.794 37.7616 186.111 37.1747C186.337 36.7684 186.54 36.4073 186.721 36.0913C186.902 35.7752 187.083 35.4366 187.264 35.0756C187.445 34.8497 187.648 34.4998 187.874 34.026C188.1 33.552 188.394 33.3149 188.756 33.3149C189.118 33.3149 189.412 33.3601 189.638 33.4505C189.864 33.5407 189.977 33.789 189.977 34.1953C189.977 34.3307 189.796 34.7709 189.434 35.5157C189.073 36.2605 188.666 37.0844 188.213 37.9872C187.761 38.8902 187.332 39.7477 186.925 40.5603C186.518 41.3729 186.247 41.9146 186.111 42.1854C185.613 43.1786 185.06 44.2733 184.449 45.4696C183.839 46.666 183.149 47.7719 182.38 48.7876C181.612 49.8033 180.764 50.6497 179.837 51.3268C178.91 52.0038 177.859 52.3425 176.683 52.3425L176.683 52.3427ZM181.023 14.3553C181.023 13.5879 181.317 12.922 181.905 12.3577C182.493 11.7935 183.171 11.5113 183.94 11.5113C184.438 11.5113 184.901 11.6242 185.331 11.8499C185.76 12.0757 186.088 12.3804 186.314 12.764C186.54 13.1478 186.631 13.6104 186.585 14.1521C186.54 14.6938 186.269 15.2807 185.771 15.9127C185.184 16.7252 184.415 17.1315 183.465 17.1315C182.832 17.1315 182.267 16.8945 181.77 16.4204C181.272 15.9464 181.024 15.2581 181.024 14.3551L181.023 14.3553Z" fill="url(#paint0_linear_12_16861)"/>
<path d="M192.175 32.2316C192.582 32.1864 193 31.9946 193.429 31.6561C193.859 31.3175 194.266 30.8887 194.65 30.3695C195.035 29.8505 195.351 29.3086 195.6 28.7444C195.849 28.1802 195.973 27.6723 195.973 27.2209C195.566 27.4917 195.182 27.8416 194.82 28.2704C194.458 28.6992 194.119 29.1168 193.802 29.5231C193.441 30.0196 193.158 30.4711 192.955 30.8774C192.751 31.2836 192.491 31.7351 192.175 32.2316ZM184.646 37.6488C184.646 35.8431 184.996 34.0599 185.697 32.2993C186.398 30.5388 187.291 28.9476 188.376 27.5256C189.461 26.1036 190.66 24.9525 191.971 24.0722C193.282 23.192 194.548 22.7518 195.769 22.7518C196.674 22.7518 197.409 23.0339 197.974 23.5982C198.539 24.1625 198.822 24.8961 198.822 25.7989C198.822 26.7921 198.63 27.7964 198.245 28.8121C197.861 29.828 197.329 30.7534 196.651 31.5885C195.973 32.4236 195.182 33.1007 194.277 33.6199C193.373 34.1391 192.378 34.3986 191.293 34.3986C191.021 34.8951 190.784 35.6061 190.581 36.5315C190.377 37.457 190.253 38.371 190.207 39.2739C190.162 40.1767 190.219 40.9667 190.377 41.6439C190.535 42.321 190.84 42.6596 191.293 42.6596C192.83 42.6596 194.096 42.2308 195.091 41.373C196.086 40.5154 197.103 39.6352 198.143 38.7322C198.641 38.3259 198.98 38.0437 199.161 37.8858C199.342 37.7277 199.489 37.5811 199.602 37.4457C199.715 37.3101 199.839 37.1635 199.975 37.0055C200.11 36.8474 200.337 36.5879 200.653 36.2268C201.422 35.4143 202.032 34.8501 202.484 34.534C202.937 34.218 203.298 34.06 203.57 34.06C203.796 34.06 203.931 34.1729 203.976 34.3986C204.022 34.6243 203.999 34.8726 203.909 35.1434C203.863 35.2337 203.762 35.3918 203.603 35.6174C203.445 35.8432 203.321 36.0012 203.23 36.0914C202.778 36.6331 202.202 37.2989 201.501 38.0889C200.8 38.8788 200.065 39.6689 199.296 40.4589C198.528 41.2488 197.782 41.9824 197.058 42.6596C196.335 43.3367 195.724 43.8559 195.227 44.217C193.554 45.4358 191.994 46.0452 190.547 46.0452C189.597 46.0452 188.76 45.8082 188.037 45.3342C187.313 44.8602 186.692 44.2281 186.172 43.4381C185.652 42.6482 185.267 41.7453 185.019 40.7296C184.77 39.7139 184.646 38.6869 184.646 37.6487L184.646 37.6488Z" fill="url(#paint1_linear_12_16861)"/>
<defs>
<linearGradient id="paint0_linear_12_16861" x1="94.9885" y1="-1.89859e-05" x2="223.887" y2="137.351" gradientUnits="userSpaceOnUse">
<stop stop-color="#4308EB"/>
<stop offset="0.711513" stop-color="#ED00E3"/>
</linearGradient>
<linearGradient id="paint1_linear_12_16861" x1="194.322" y1="22.7518" x2="219.736" y2="30.9237" gradientUnits="userSpaceOnUse">
<stop stop-color="#4308EB"/>
<stop offset="0.711513" stop-color="#ED00E3"/>
</linearGradient>
</defs>
</svg>
