<svg width="24" height="25" viewBox="0 0 24 25" fill="none" xmlns="http://www.w3.org/2000/svg">
<path d="M21 0.5H3C1.34315 0.5 0 1.84315 0 3.5V21.5C0 23.1569 1.34315 24.5 3 24.5H21C22.6569 24.5 24 23.1569 24 21.5V3.5C24 1.84315 22.6569 0.5 21 0.5ZM1.5 6.28571C1.5 5.57563 2.17157 5 3 5H21C21.8284 5 22.5 5.57563 22.5 6.28571V21.7143C22.5 22.4244 21.8284 23 21 23H3C2.17157 23 1.5 22.4244 1.5 21.7143V6.28571Z" fill="#A484FE"/>
<path d="M10.5 15.5C11.3284 15.5 12 14.8284 12 14C12 13.1716 11.3284 12.5 10.5 12.5C9.67157 12.5 1.5 12.5 1.5 12.5V15.5C1.5 15.5 10.0858 15.5 10.5 15.5Z" fill="#A484FE"/>
<path d="M13.5 11C13.9142 11 22.5 11 22.5 11V8C22.5 8 14.3284 8 13.5 8C12.6716 8 12 8.67157 12 9.5C12 10.3284 12.6716 11 13.5 11Z" fill="#A484FE"/>
</svg>
