<svg width="24" height="25" viewBox="0 0 24 25" fill="none" xmlns="http://www.w3.org/2000/svg">
<path d="M21 0.5H3C1.34315 0.5 0 1.84315 0 3.5V21.5C0 23.1569 1.34315 24.5 3 24.5H21C22.6569 24.5 24 23.1569 24 21.5V3.5C24 1.84315 22.6569 0.5 21 0.5ZM1.5 6.28571C1.5 5.57563 2.17157 5 3 5H21C21.8284 5 22.5 5.57563 22.5 6.28571V21.7143C22.5 22.4244 21.8284 23 21 23H3C2.17157 23 1.5 22.4244 1.5 21.7143V6.28571Z" fill="#A484FE"/>
<path d="M9.75 11C10.5784 11 11.25 10.3284 11.25 9.5C11.25 8.67157 10.5784 8 9.75 8C8.92157 8 8.25 8.67157 8.25 9.5C8.25 10.3284 8.92157 11 9.75 11Z" fill="#A484FE"/>
<path d="M14.25 11C15.0784 11 15.75 10.3284 15.75 9.5C15.75 8.67157 15.0784 8 14.25 8C13.4216 8 12.75 8.67157 12.75 9.5C12.75 10.3284 13.4216 11 14.25 11Z" fill="#A484FE"/>
<path d="M18.75 11C19.5784 11 20.25 10.3284 20.25 9.5C20.25 8.67157 19.5784 8 18.75 8C17.9216 8 17.25 8.67157 17.25 9.5C17.25 10.3284 17.9216 11 18.75 11Z" fill="#A484FE"/>
<path d="M5.25 15.5C6.07843 15.5 6.75 14.8284 6.75 14C6.75 13.1716 6.07843 12.5 5.25 12.5C4.42157 12.5 3.75 13.1716 3.75 14C3.75 14.8284 4.42157 15.5 5.25 15.5Z" fill="#A484FE"/>
<path d="M9.75 15.5C10.5784 15.5 11.25 14.8284 11.25 14C11.25 13.1716 10.5784 12.5 9.75 12.5C8.92157 12.5 8.25 13.1716 8.25 14C8.25 14.8284 8.92157 15.5 9.75 15.5Z" fill="#A484FE"/>
<path d="M14.25 15.5C15.0784 15.5 15.75 14.8284 15.75 14C15.75 13.1716 15.0784 12.5 14.25 12.5C13.4216 12.5 12.75 13.1716 12.75 14C12.75 14.8284 13.4216 15.5 14.25 15.5Z" fill="#A484FE"/>
<path d="M18.75 15.5C19.5784 15.5 20.25 14.8284 20.25 14C20.25 13.1716 19.5784 12.5 18.75 12.5C17.9216 12.5 17.25 13.1716 17.25 14C17.25 14.8284 17.9216 15.5 18.75 15.5Z" fill="#A484FE"/>
<path d="M5.25 20C6.07843 20 6.75 19.3284 6.75 18.5C6.75 17.6716 6.07843 17 5.25 17C4.42157 17 3.75 17.6716 3.75 18.5C3.75 19.3284 4.42157 20 5.25 20Z" fill="#A484FE"/>
<path d="M9.75 20C10.5784 20 11.25 19.3284 11.25 18.5C11.25 17.6716 10.5784 17 9.75 17C8.92157 17 8.25 17.6716 8.25 18.5C8.25 19.3284 8.92157 20 9.75 20Z" fill="#A484FE"/>
<path d="M14.25 20C15.0784 20 15.75 19.3284 15.75 18.5C15.75 17.6716 15.0784 17 14.25 17C13.4216 17 12.75 17.6716 12.75 18.5C12.75 19.3284 13.4216 20 14.25 20Z" fill="#A484FE"/>
</svg>
