<svg width="24" height="25" viewBox="0 0 24 25" fill="none" xmlns="http://www.w3.org/2000/svg">
<path d="M3.75 6.5C4.16421 6.5 4.5 6.16421 4.5 5.75C4.5 5.33579 4.16421 5 3.75 5C3.33579 5 3 5.33579 3 5.75C3 6.16421 3.33579 6.5 3.75 6.5Z" fill="url(#paint0_linear_54_396)"/>
<path d="M6.75 5.75C6.75 6.16421 6.41421 6.5 6 6.5C5.58579 6.5 5.25 6.16421 5.25 5.75C5.25 5.33579 5.58579 5 6 5C6.41421 5 6.75 5.33579 6.75 5.75Z" fill="url(#paint1_linear_54_396)"/>
<path d="M8.25 6.5C8.66421 6.5 9 6.16421 9 5.75C9 5.33579 8.66421 5 8.25 5C7.83579 5 7.5 5.33579 7.5 5.75C7.5 6.16421 7.83579 6.5 8.25 6.5Z" fill="url(#paint2_linear_54_396)"/>
<path d="M3 2C1.34315 2 0 3.34315 0 5V20C0 21.6569 1.34315 23 3 23H21C22.6569 23 24 21.6569 24 20V5C24 3.34315 22.6569 2 21 2H3ZM21 3.5C21.8284 3.5 22.5 4.17157 22.5 5V8H1.5V5C1.5 4.17157 2.17157 3.5 3 3.5H21ZM1.5 20V9.5H7.5V21.5H3C2.17157 21.5 1.5 20.8284 1.5 20ZM9 21.5V9.5H22.5V20C22.5 20.8284 21.8284 21.5 21 21.5H9Z" fill="url(#paint3_linear_54_396)"/>
<defs>
<linearGradient id="paint0_linear_54_396" x1="12" y1="1.99999" x2="41.0836" y2="14.8638" gradientUnits="userSpaceOnUse">
<stop stop-color="#4308EB"/>
<stop offset="0.711513" stop-color="#ED00E3"/>
</linearGradient>
<linearGradient id="paint1_linear_54_396" x1="12" y1="1.99999" x2="41.0836" y2="14.8638" gradientUnits="userSpaceOnUse">
<stop stop-color="#4308EB"/>
<stop offset="0.711513" stop-color="#ED00E3"/>
</linearGradient>
<linearGradient id="paint2_linear_54_396" x1="12" y1="1.99999" x2="41.0836" y2="14.8638" gradientUnits="userSpaceOnUse">
<stop stop-color="#4308EB"/>
<stop offset="0.711513" stop-color="#ED00E3"/>
</linearGradient>
<linearGradient id="paint3_linear_54_396" x1="12" y1="1.99999" x2="41.0836" y2="14.8638" gradientUnits="userSpaceOnUse">
<stop stop-color="#4308EB"/>
<stop offset="0.711513" stop-color="#ED00E3"/>
</linearGradient>
</defs>
</svg>
