<svg width="29" height="31" viewBox="0 0 29 31" fill="none" xmlns="http://www.w3.org/2000/svg">
<path d="M27.5366 22.7916H26.1658V12.5833C26.1658 6.13997 20.9424 0.916626 14.4991 0.916626C8.05577 0.916626 2.83242 6.13997 2.83242 12.5833V22.7916H1.53451C0.72909 22.7916 0.0761719 23.4445 0.0761719 24.25C0.0761719 25.0554 0.72909 25.7083 1.53451 25.7083H27.5366C28.342 25.7083 28.9949 25.0554 28.9949 24.25C28.9949 23.4445 28.342 22.7916 27.5366 22.7916Z" fill="#4308EB"/>
<path d="M14.4992 30.0833C16.3488 30.0781 17.9952 28.9104 18.6117 27.1666H10.3867C11.0032 28.9104 12.6497 30.0781 14.4992 30.0833Z" fill="#4308EB"/>
</svg>
