<svg width="24" height="18" viewBox="0 0 24 18" fill="none" xmlns="http://www.w3.org/2000/svg">
<path d="M1.5 1.5C1.5 0.671573 2.17157 0 3 0H21C21.8284 0 22.5 0.671573 22.5 1.5L1.5 1.5Z" fill="#A484FE"/>
<path d="M12 13.5C13.6569 13.5 15 12.1569 15 10.5C15 8.84315 13.6569 7.5 12 7.5C10.3431 7.5 9 8.84315 9 10.5C9 12.1569 10.3431 13.5 12 13.5Z" fill="#A484FE"/>
<path d="M0 4.5C0 3.67157 0.671573 3 1.5 3H22.5C23.3284 3 24 3.67157 24 4.5V16.5C24 17.3284 23.3284 18 22.5 18H1.5C0.671573 18 0 17.3284 0 16.5V4.5ZM4.5 4.5C4.5 6.15685 3.15685 7.5 1.5 7.5V13.5C3.15685 13.5 4.5 14.8431 4.5 16.5H19.5C19.5 14.8431 20.8431 13.5 22.5 13.5V7.5C20.8431 7.5 19.5 6.15685 19.5 4.5H4.5Z" fill="#A484FE"/>
</svg>
