<svg width="24" height="25" viewBox="0 0 24 25" fill="none" xmlns="http://www.w3.org/2000/svg">
<path fill-rule="evenodd" clip-rule="evenodd" d="M0 0.5H1.5V23H24V24.5H0V0.5ZM15 5.75C15 5.33579 15.3358 5 15.75 5H21.75C22.1642 5 22.5 5.33579 22.5 5.75V11.75C22.5 12.1642 22.1642 12.5 21.75 12.5C21.3358 12.5 21 12.1642 21 11.75V7.85106L15.5805 14.4749C15.4463 14.6389 15.249 14.7385 15.0374 14.7491C14.8257 14.7596 14.6195 14.6802 14.4697 14.5303L10.5903 10.651L5.10655 18.1911C4.86292 18.5261 4.39386 18.6002 4.05887 18.3566C3.72388 18.1129 3.64982 17.6439 3.89345 17.3089L9.89345 9.05887C10.0225 8.88148 10.2227 8.76945 10.4413 8.7523C10.66 8.73514 10.8752 8.81457 11.0303 8.96967L14.9443 12.8837L20.1673 6.5H15.75C15.3358 6.5 15 6.16421 15 5.75Z" fill="#A484FE"/>
</svg>
