<svg width="11" height="12" viewBox="0 0 11 12" fill="none" xmlns="http://www.w3.org/2000/svg">
<path d="M5.50028 0.857178C5.85532 0.857178 6.14314 1.14499 6.14314 1.50003V5.35718H10.0003C10.3553 5.35718 10.6431 5.645 10.6431 6.00004C10.6431 6.35508 10.3553 6.64289 10.0003 6.64289H6.14314V10.5C6.14314 10.8551 5.85532 11.1429 5.50028 11.1429C5.14524 11.1429 4.85742 10.8551 4.85742 10.5V6.64289H1.00028C0.645239 6.64289 0.357422 6.35508 0.357422 6.00004C0.357422 5.645 0.645239 5.35718 1.00028 5.35718H4.85742V1.50003C4.85742 1.14499 5.14524 0.857178 5.50028 0.857178Z" fill="white"/>
</svg>
