<svg width="24" height="25" viewBox="0 0 24 25" fill="none" xmlns="http://www.w3.org/2000/svg">
<path d="M2.25 2C1.83579 2 1.5 2.33579 1.5 2.75V7.25C1.5 7.66421 1.16421 8 0.75 8C0.335786 8 0 7.66421 0 7.25V2.75C0 1.50736 1.00736 0.5 2.25 0.5H6.75C7.16421 0.5 7.5 0.835786 7.5 1.25C7.5 1.66421 7.16421 2 6.75 2H2.25ZM16.5 1.25C16.5 0.835786 16.8358 0.5 17.25 0.5H21.75C22.9926 0.5 24 1.50736 24 2.75V7.25C24 7.66421 23.6642 8 23.25 8C22.8358 8 22.5 7.66421 22.5 7.25V2.75C22.5 2.33579 22.1642 2 21.75 2H17.25C16.8358 2 16.5 1.66421 16.5 1.25ZM0.75 17C1.16421 17 1.5 17.3358 1.5 17.75V22.25C1.5 22.6642 1.83579 23 2.25 23H6.75C7.16421 23 7.5 23.3358 7.5 23.75C7.5 24.1642 7.16421 24.5 6.75 24.5H2.25C1.00736 24.5 0 23.4926 0 22.25V17.75C0 17.3358 0.335786 17 0.75 17ZM23.25 17C23.6642 17 24 17.3358 24 17.75V22.25C24 23.4926 22.9926 24.5 21.75 24.5H17.25C16.8358 24.5 16.5 24.1642 16.5 23.75C16.5 23.3358 16.8358 23 17.25 23H21.75C22.1642 23 22.5 22.6642 22.5 22.25V17.75C22.5 17.3358 22.8358 17 23.25 17Z" fill="#A484FE"/>
<path d="M4.5 7.25C4.5 6.83579 4.83579 6.5 5.25 6.5C5.66421 6.5 6 6.83579 6 7.25V17.75C6 18.1642 5.66421 18.5 5.25 18.5C4.83579 18.5 4.5 18.1642 4.5 17.75V7.25Z" fill="#A484FE"/>
<path d="M7.5 7.25C7.5 6.83579 7.83579 6.5 8.25 6.5C8.66421 6.5 9 6.83579 9 7.25V17.75C9 18.1642 8.66421 18.5 8.25 18.5C7.83579 18.5 7.5 18.1642 7.5 17.75V7.25Z" fill="#A484FE"/>
<path d="M10.5 7.25C10.5 6.83579 10.8358 6.5 11.25 6.5C11.6642 6.5 12 6.83579 12 7.25V17.75C12 18.1642 11.6642 18.5 11.25 18.5C10.8358 18.5 10.5 18.1642 10.5 17.75V7.25Z" fill="#A484FE"/>
<path d="M13.5 7.25C13.5 6.83579 13.8358 6.5 14.25 6.5H15.75C16.1642 6.5 16.5 6.83579 16.5 7.25V17.75C16.5 18.1642 16.1642 18.5 15.75 18.5H14.25C13.8358 18.5 13.5 18.1642 13.5 17.75V7.25Z" fill="#A484FE"/>
<path d="M18 7.25C18 6.83579 18.3358 6.5 18.75 6.5C19.1642 6.5 19.5 6.83579 19.5 7.25V17.75C19.5 18.1642 19.1642 18.5 18.75 18.5C18.3358 18.5 18 18.1642 18 17.75V7.25Z" fill="#A484FE"/>
</svg>
