<svg width="24" height="25" viewBox="0 0 24 25" fill="none" xmlns="http://www.w3.org/2000/svg">
<path d="M14.504 1.79644L12.0009 0.5L9.49788 1.79644L6.71085 2.21885L5.44788 4.73894L3.44141 6.71885L3.90091 9.5L3.44141 12.2812L5.44788 14.2611L6.71085 16.7812L9.49788 17.2036L12.0009 18.5L14.504 17.2036L17.291 16.7812L18.554 14.2611L20.5604 12.2812L20.1009 9.5L20.5604 6.71885L18.554 4.73894L17.291 2.21885L14.504 1.79644ZM16.2981 3.58549L17.324 5.63257L18.9538 7.24086L18.5806 9.5L18.9538 11.7591L17.324 13.3674L16.2981 15.4145L14.0341 15.7576L12.0009 16.8107L9.96769 15.7576L7.70377 15.4145L6.67785 13.3674L5.04799 11.7591L5.42125 9.5L5.04799 7.24086L6.67785 5.63257L7.70377 3.58549L9.96769 3.24237L12.0009 2.18926L14.0341 3.24237L16.2981 3.58549Z" fill="#A484FE"/>
<path d="M6.00091 18.1907V24.5L12.0009 23L18.0009 24.5V18.1907L14.9737 18.6495L12.0009 20.1893L9.02805 18.6495L6.00091 18.1907Z" fill="#A484FE"/>
</svg>
